<svg version="1.1" viewBox="0.0 0.0 200.0 200.0" fill="none" stroke="none" stroke-linecap="square" stroke-miterlimit="10" xmlns:xlink="http://www.w3.org/1999/xlink" xmlns="http://www.w3.org/2000/svg"><clipPath id="p.0"><path d="m0 0l200.0 0l0 200.0l-200.0 0l0 -200.0z" clip-rule="nonzero"/></clipPath><g clip-path="url(#p.0)"><path fill="#000000" fill-opacity="0.0" d="m0 0l200.0 0l0 200.0l-200.0 0z" fill-rule="evenodd"/><path fill="#0000ff" d="m4.023622 4.3097115l191.95276 0l0 153.33334l-95.97638 38.33333l-95.97638 -38.33333z" fill-rule="evenodd"/><path stroke="#000000" stroke-width="8.0" stroke-linejoin="round" stroke-linecap="butt" d="m4.023622 4.3097115l191.95276 0l0 153.33334l-95.97638 38.33333l-95.97638 -38.33333z" fill-rule="evenodd"/><path fill="#ffffff" d="m4.023622 4.3097115l191.95276 0l0 153.33334l-95.97638 38.33333l-95.97638 -38.33333z" fill-rule="evenodd"/><path stroke="#0057b8" stroke-width="8.0" stroke-linejoin="round" stroke-linecap="butt" d="m4.023622 4.3097115l191.95276 0l0 153.33334l-95.97638 38.33333l-95.97638 -38.33333z" fill-rule="evenodd"/><path fill="#0057b8" d="m66.51969 8.2505865l66.960625 0l0 170.26773l-66.960625 0z" fill-rule="evenodd"/><path fill="#0057b8" d="m133.62206 178.49144l-33.11772 14.078735l-34.126373 -14.078735z" fill-rule="evenodd"/><path fill="#0000ff" d="m4.023622 4.3097115l191.95276 0l0 153.33334l-95.97638 38.33333l-95.97638 -38.33333z" fill-rule="evenodd"/><path stroke="#000000" stroke-width="8.0" stroke-linejoin="round" stroke-linecap="butt" d="m4.023622 4.3097115l191.95276 0l0 153.33334l-95.97638 38.33333l-95.97638 -38.33333z" fill-rule="evenodd"/><path fill="#da291c" d="m4.023622 4.3097115l191.95276 0l0 153.33334l-95.97638 38.33333l-95.97638 -38.33333z" fill-rule="evenodd"/><path stroke="#000000" stroke-width="8.0" stroke-linejoin="round" stroke-linecap="butt" d="m4.023622 4.3097115l191.95276 0l0 153.33334l-95.97638 38.33333l-95.97638 -38.33333z" fill-rule="evenodd"/><path fill="#000000" d="m82.71129 5.4593177l34.677162 0l0 184.22047l-34.677162 0z" fill-rule="evenodd"/><path fill="#000000" d="m117.010506 186.11353l-16.706223 6.204727l-17.215042 -6.204727z" fill-rule="evenodd"/><path fill="#000000" d="m6.9396324 8.249327l34.677166 0l0 150.3622l-34.677166 0z" fill-rule="evenodd"/><path fill="#000000" d="m41.616802 156.55818l0 14.078735l-31.622047 -14.078735z" fill-rule="evenodd"/><path fill="#000000" d="m193.10236 5.459318l-35.96849 0l0 154.89763l35.96849 0z" fill-rule="evenodd"/><path fill="#000000" d="m157.13649 156.55818l0 14.078735l31.62204 -14.078735z" fill-rule="evenodd"/></g></svg>