<svg version="1.1" viewBox="0.0 0.0 200.0 200.0" fill="none" stroke="none" stroke-linecap="square" stroke-miterlimit="10" xmlns:xlink="http://www.w3.org/1999/xlink" xmlns="http://www.w3.org/2000/svg"><clipPath id="p.0"><path d="m0 0l200.0 0l0 200.0l-200.0 0l0 -200.0z" clip-rule="nonzero"/></clipPath><g clip-path="url(#p.0)"><path fill="#000000" fill-opacity="0.0" d="m0 0l200.0 0l0 200.0l-200.0 0z" fill-rule="evenodd"/><path fill="#0000ff" d="m4.023622 4.3097115l191.95276 0l0 153.79318l-95.97638 38.448288l-95.97638 -38.448288z" fill-rule="evenodd"/><path stroke="#000000" stroke-width="8.0" stroke-linejoin="round" stroke-linecap="butt" d="m4.023622 4.3097115l191.95276 0l0 153.79318l-95.97638 38.448288l-95.97638 -38.448288z" fill-rule="evenodd"/><path fill="#6c1d45" d="m4.023622 4.3097115l191.95276 0l0 153.79318l-95.97638 38.448288l-95.97638 -38.448288z" fill-rule="evenodd"/><path stroke="#fbee23" stroke-width="8.0" stroke-linejoin="round" stroke-linecap="butt" d="m4.023622 4.3097115l191.95276 0l0 153.79318l-95.97638 38.448288l-95.97638 -38.448288z" fill-rule="evenodd"/><path fill="#000000" fill-opacity="0.0" d="m8.908141 8.827078l182.47244 0l0 146.56537l-91.23622 36.641342l-91.23622 -36.641342z" fill-rule="evenodd"/><path stroke="#99d6ea" stroke-width="4.0" stroke-linejoin="round" stroke-linecap="butt" d="m8.908141 8.827078l182.47244 0l0 146.56537l-91.23622 36.641342l-91.23622 -36.641342z" fill-rule="evenodd"/></g></svg>