<svg version="1.1" viewBox="0.0 0.0 200.0 200.0" fill="none" stroke="none" stroke-linecap="square" stroke-miterlimit="10" xmlns:xlink="http://www.w3.org/1999/xlink" xmlns="http://www.w3.org/2000/svg"><clipPath id="p.0"><path d="m0 0l200.0 0l0 200.0l-200.0 0l0 -200.0z" clip-rule="nonzero"/></clipPath><g clip-path="url(#p.0)"><path fill="#000000" fill-opacity="0.0" d="m0 0l200.0 0l0 200.0l-200.0 0z" fill-rule="evenodd"/><path fill="#0000ff" d="m4.023622 4.309712l191.95276 0l0 152.87349l-95.97638 38.218384l-95.97638 -38.218384z" fill-rule="evenodd"/><path stroke="#000000" stroke-width="8.0" stroke-linejoin="round" stroke-linecap="butt" d="m4.023622 4.309712l191.95276 0l0 152.87349l-95.97638 38.218384l-95.97638 -38.218384z" fill-rule="evenodd"/><path fill="#ffffff" d="m4.023622 4.309712l191.95276 0l0 152.87349l-95.97638 38.218384l-95.97638 -38.218384z" fill-rule="evenodd"/><path stroke="#f1f10d" stroke-width="8.0" stroke-linejoin="round" stroke-linecap="butt" d="m4.023622 4.309712l191.95276 0l0 152.87349l-95.97638 38.218384l-95.97638 -38.218384z" fill-rule="evenodd"/><path fill="#000000" fill-opacity="0.0" d="m8.908141 8.800064l182.47244 0l0 145.6889l-91.23622 36.422226l-91.23622 -36.422226z" fill-rule="evenodd"/><path stroke="#0d5bd8" stroke-width="4.0" stroke-linejoin="round" stroke-linecap="butt" d="m8.908141 8.800064l182.47244 0l0 145.6889l-91.23622 36.422226l-91.23622 -36.422226z" fill-rule="evenodd"/></g></svg>