<svg version="1.1" viewBox="0.0 0.0 200.0 200.0" fill="none" stroke="none" stroke-linecap="square" stroke-miterlimit="10" xmlns:xlink="http://www.w3.org/1999/xlink" xmlns="http://www.w3.org/2000/svg"><clipPath id="p.0"><path d="m0 0l200.0 0l0 200.0l-200.0 0l0 -200.0z" clip-rule="nonzero"/></clipPath><g clip-path="url(#p.0)"><path fill="#000000" fill-opacity="0.0" d="m0 0l200.0 0l0 200.0l-200.0 0z" fill-rule="evenodd"/><path fill="#0000ff" d="m4.023622 4.3097115l191.95276 0l0 153.79318l-95.97638 38.448288l-95.97638 -38.448288z" fill-rule="evenodd"/><path stroke="#000000" stroke-width="8.0" stroke-linejoin="round" stroke-linecap="butt" d="m4.023622 4.3097115l191.95276 0l0 153.79318l-95.97638 38.448288l-95.97638 -38.448288z" fill-rule="evenodd"/><path fill="#ffffff" d="m4.023622 4.3097115l191.95276 0l0 153.79318l-95.97638 38.448288l-95.97638 -38.448288z" fill-rule="evenodd"/><path stroke="#000000" stroke-width="8.0" stroke-linejoin="round" stroke-linecap="butt" d="m4.023622 4.3097115l191.95276 0l0 153.79318l-95.97638 38.448288l-95.97638 -38.448288z" fill-rule="evenodd"/><path fill="#000000" d="m82.71129 6.56168l34.677162 0l0 184.25197l-34.677162 0z" fill-rule="evenodd"/><path fill="#000000" d="m117.010506 186.67735l-16.706223 6.204727l-17.215042 -6.204727z" fill-rule="evenodd"/><path fill="#000000" d="m6.9396324 6.56168l34.677166 0l0 155.49606l-34.677166 0z" fill-rule="evenodd"/><path fill="#000000" d="m41.616802 157.0255l0 14.1102295l-31.622047 -14.1102295z" fill-rule="evenodd"/><path fill="#000000" d="m193.10236 6.56168l-35.96849 0l0 153.79527l35.96849 0z" fill-rule="evenodd"/><path fill="#000000" d="m157.13649 157.0255l0 14.1102295l31.62204 -14.1102295z" fill-rule="evenodd"/></g></svg>