<svg version="1.1" viewBox="0.0 0.0 200.0 200.0" fill="none" stroke="none" stroke-linecap="square" stroke-miterlimit="10" xmlns:xlink="http://www.w3.org/1999/xlink" xmlns="http://www.w3.org/2000/svg"><clipPath id="p.0"><path d="m0 0l200.0 0l0 200.0l-200.0 0l0 -200.0z" clip-rule="nonzero"/></clipPath><g clip-path="url(#p.0)"><path fill="#000000" fill-opacity="0.0" d="m0 0l200.0 0l0 200.0l-200.0 0z" fill-rule="evenodd"/><path fill="#0000ff" d="m4.023622 4.3097115l191.95276 0l0 153.56432l-95.97638 38.391068l-95.97638 -38.391068z" fill-rule="evenodd"/><path stroke="#000000" stroke-width="8.0" stroke-linejoin="round" stroke-linecap="butt" d="m4.023622 4.3097115l191.95276 0l0 153.56432l-95.97638 38.391068l-95.97638 -38.391068z" fill-rule="evenodd"/><path fill="#ffffff" d="m4.023622 4.3097115l191.95276 0l0 153.56432l-95.97638 38.391068l-95.97638 -38.391068z" fill-rule="evenodd"/><path stroke="#000000" stroke-width="8.0" stroke-linejoin="round" stroke-linecap="butt" d="m4.023622 4.3097115l191.95276 0l0 153.56432l-95.97638 38.391068l-95.97638 -38.391068z" fill-rule="evenodd"/><path fill="#d71920" d="m66.519684 8.254593l66.96063 0l0 172.22047l-66.96063 0z" fill-rule="evenodd"/><path fill="#d71920" d="m133.62206 178.77502l-33.11772 14.078735l-34.126373 -14.078735z" fill-rule="evenodd"/><path fill="#000000" fill-opacity="0.0" d="m4.023622 4.308399l191.95276 0l0 153.56432l-95.97638 38.391068l-95.97638 -38.391068z" fill-rule="evenodd"/><path stroke="#000000" stroke-width="8.0" stroke-linejoin="round" stroke-linecap="butt" d="m4.023622 4.308399l191.95276 0l0 153.56432l-95.97638 38.391068l-95.97638 -38.391068z" fill-rule="evenodd"/></g></svg>