<svg version="1.1" viewBox="0.0 0.0 200.0 200.0" fill="none" stroke="none" stroke-linecap="square" stroke-miterlimit="10" xmlns:xlink="http://www.w3.org/1999/xlink" xmlns="http://www.w3.org/2000/svg"><clipPath id="p.0"><path d="m0 0l200.0 0l0 200.0l-200.0 0l0 -200.0z" clip-rule="nonzero"/></clipPath><g clip-path="url(#p.0)"><path fill="#000000" fill-opacity="0.0" d="m0 0l200.0 0l0 200.0l-200.0 0z" fill-rule="evenodd"/><path fill="#122f67" d="m4.023622 4.3097115l191.95276 0l0 153.33334l-95.97638 38.33333l-95.97638 -38.33333z" fill-rule="evenodd"/><path stroke="#122f67" stroke-width="8.0" stroke-linejoin="round" stroke-linecap="butt" d="m4.023622 4.3097115l191.95276 0l0 153.33334l-95.97638 38.33333l-95.97638 -38.33333z" fill-rule="evenodd"/><path fill="#122f67" d="m4.023622 4.3097115l191.95276 0l0 153.33334l-95.97638 38.33333l-95.97638 -38.33333z" fill-rule="evenodd"/><path stroke="#122f67" stroke-width="8.0" stroke-linejoin="round" stroke-linecap="butt" d="m4.023622 4.3097115l191.95276 0l0 153.33334l-95.97638 38.33333l-95.97638 -38.33333z" fill-rule="evenodd"/><path fill="#122f67" d="m66.51969 8.2505865l66.960625 0l0 170.26773l-66.960625 0z" fill-rule="evenodd"/><path stroke="#122f67" stroke-width="1.0" stroke-linejoin="round" stroke-linecap="butt" d="m66.51969 8.2505865l66.960625 0l0 170.26773l-66.960625 0z" fill-rule="evenodd"/><path fill="#122f67" d="m133.62206 178.49144l-33.11772 14.078735l-34.126373 -14.078735z" fill-rule="evenodd"/><path stroke="#122f67" stroke-width="1.0" stroke-linejoin="round" stroke-linecap="butt" d="m133.62206 178.49144l-33.11772 14.078735l-34.126373 -14.078735z" fill-rule="evenodd"/><path fill="#122f67" d="m4.023622 4.3097115l191.95276 0l0 153.33334l-95.97638 38.33333l-95.97638 -38.33333z" fill-rule="evenodd"/><path stroke="#122f67" stroke-width="8.0" stroke-linejoin="round" stroke-linecap="butt" d="m4.023622 4.3097115l191.95276 0l0 153.33334l-95.97638 38.33333l-95.97638 -38.33333z" fill-rule="evenodd"/><path fill="#ffffff" d="m4.023622 4.3097115l191.95276 0l0 153.33334l-95.97638 38.33333l-95.97638 -38.33333z" fill-rule="evenodd"/><path stroke="#1b449c" stroke-width="8.0" stroke-linejoin="round" stroke-linecap="butt" d="m4.023622 4.3097115l191.95276 0l0 153.33334l-95.97638 38.33333l-95.97638 -38.33333z" fill-rule="evenodd"/><path fill="#ff0000" d="m82.71129 8.249333l34.677162 0l0 179.40158l-34.677162 0z" fill-rule="evenodd"/><path fill="#ff0000" d="m117.010506 186.11353l-16.706223 6.204727l-17.215042 -6.204727z" fill-rule="evenodd"/><path fill="#ff0000" d="m6.9396324 8.249331l34.677166 0l0 149.79527l-34.677166 0z" fill-rule="evenodd"/><path fill="#ff0000" d="m41.616802 156.55818l0 14.078735l-31.622047 -14.078735z" fill-rule="evenodd"/><path fill="#ff0000" d="m193.10236 8.249336l-35.96849 0l0 149.79529l35.96849 0z" fill-rule="evenodd"/><path fill="#ff0000" d="m157.13649 156.55818l0 14.078735l31.62204 -14.078735z" fill-rule="evenodd"/><path fill="#000000" fill-opacity="0.0" d="m6.9396367 8.813571l186.16273 0l0 146.80374l-93.08137 36.700943l-93.08137 -36.700943z" fill-rule="evenodd"/><path stroke="#ffffff" stroke-width="4.0" stroke-linejoin="round" stroke-linecap="butt" d="m6.9396367 8.813571l186.16273 0l0 146.80374l-93.08137 36.700943l-93.08137 -36.700943z" fill-rule="evenodd"/></g></svg>