<svg version="1.1" viewBox="0.0 0.0 200.0 200.0" fill="none" stroke="none" stroke-linecap="square" stroke-miterlimit="10" xmlns:xlink="http://www.w3.org/1999/xlink" xmlns="http://www.w3.org/2000/svg"><clipPath id="p.0"><path d="m0 0l200.0 0l0 200.0l-200.0 0l0 -200.0z" clip-rule="nonzero"/></clipPath><g clip-path="url(#p.0)"><path fill="#000000" fill-opacity="0.0" d="m0 0l200.0 0l0 200.0l-200.0 0z" fill-rule="evenodd"/><path fill="#122f67" d="m4.023622 4.3097115l191.95276 0l0 153.56432l-95.97638 38.391068l-95.97638 -38.391068z" fill-rule="evenodd"/><path stroke="#122f67" stroke-width="8.0" stroke-linejoin="round" stroke-linecap="butt" d="m4.023622 4.3097115l191.95276 0l0 153.56432l-95.97638 38.391068l-95.97638 -38.391068z" fill-rule="evenodd"/><path fill="#122f67" d="m4.023622 4.3097115l191.95276 0l0 153.56432l-95.97638 38.391068l-95.97638 -38.391068z" fill-rule="evenodd"/><path stroke="#122f67" stroke-width="8.0" stroke-linejoin="round" stroke-linecap="butt" d="m4.023622 4.3097115l191.95276 0l0 153.56432l-95.97638 38.391068l-95.97638 -38.391068z" fill-rule="evenodd"/><path fill="#122f67" d="m66.51969 8.256523l66.960625 0l0 170.51968l-66.960625 0z" fill-rule="evenodd"/><path stroke="#122f67" stroke-width="1.0" stroke-linejoin="round" stroke-linecap="butt" d="m66.51969 8.256523l66.960625 0l0 170.51968l-66.960625 0z" fill-rule="evenodd"/><path fill="#122f67" d="m133.62206 178.77502l-33.11772 14.078735l-34.126373 -14.078735z" fill-rule="evenodd"/><path stroke="#122f67" stroke-width="1.0" stroke-linejoin="round" stroke-linecap="butt" d="m133.62206 178.77502l-33.11772 14.078735l-34.126373 -14.078735z" fill-rule="evenodd"/><path fill="#122f67" d="m4.023622 4.3097115l191.95276 0l0 153.56432l-95.97638 38.391068l-95.97638 -38.391068z" fill-rule="evenodd"/><path stroke="#122f67" stroke-width="8.0" stroke-linejoin="round" stroke-linecap="butt" d="m4.023622 4.3097115l191.95276 0l0 153.56432l-95.97638 38.391068l-95.97638 -38.391068z" fill-rule="evenodd"/><path fill="#ffffff" d="m4.023622 4.3097115l191.95276 0l0 153.56432l-95.97638 38.391068l-95.97638 -38.391068z" fill-rule="evenodd"/><path stroke="#122f67" stroke-width="8.0" stroke-linejoin="round" stroke-linecap="butt" d="m4.023622 4.3097115l191.95276 0l0 153.56432l-95.97638 38.391068l-95.97638 -38.391068z" fill-rule="evenodd"/><path fill="#122f67" d="m82.71129 4.309711l34.677162 0l0 185.32285l-34.677162 0z" fill-rule="evenodd"/><path stroke="#122f67" stroke-width="1.0" stroke-linejoin="round" stroke-linecap="butt" d="m82.71129 4.309711l34.677162 0l0 185.32285l-34.677162 0z" fill-rule="evenodd"/><path fill="#122f67" d="m117.010506 186.39673l-16.706223 6.204727l-17.215042 -6.204727z" fill-rule="evenodd"/><path stroke="#122f67" stroke-width="1.0" stroke-linejoin="round" stroke-linecap="butt" d="m117.010506 186.39673l-16.706223 6.204727l-17.215042 -6.204727z" fill-rule="evenodd"/><path fill="#122f67" d="m6.9396324 6.0341206l34.677166 0l0 153.16536l-34.677166 0z" fill-rule="evenodd"/><path stroke="#122f67" stroke-width="1.0" stroke-linejoin="round" stroke-linecap="butt" d="m6.9396324 6.0341206l34.677166 0l0 153.16536l-34.677166 0z" fill-rule="evenodd"/><path fill="#122f67" d="m41.616802 156.80872l0 14.078751l-31.622047 -14.078751z" fill-rule="evenodd"/><path stroke="#122f67" stroke-width="1.0" stroke-linejoin="round" stroke-linecap="butt" d="m41.616802 156.80872l0 14.078751l-31.622047 -14.078751z" fill-rule="evenodd"/><path fill="#122f67" d="m193.10236 6.0341206l-35.96849 0l0 155.46457l35.96849 0z" fill-rule="evenodd"/><path stroke="#122f67" stroke-width="1.0" stroke-linejoin="round" stroke-linecap="butt" d="m193.10236 6.0341206l-35.96849 0l0 155.46457l35.96849 0z" fill-rule="evenodd"/><path fill="#122f67" d="m157.13649 156.80872l0 14.078751l31.62204 -14.078751z" fill-rule="evenodd"/><path stroke="#122f67" stroke-width="1.0" stroke-linejoin="round" stroke-linecap="butt" d="m157.13649 156.80872l0 14.078751l31.62204 -14.078751z" fill-rule="evenodd"/><path fill="#000000" fill-opacity="0.0" d="m8.908141 8.820355l182.47244 0l0 146.34724l-91.23622 36.586807l-91.23622 -36.586807z" fill-rule="evenodd"/><path stroke="#783f04" stroke-width="4.0" stroke-linejoin="round" stroke-linecap="butt" d="m8.908141 8.820355l182.47244 0l0 146.34724l-91.23622 36.586807l-91.23622 -36.586807z" fill-rule="evenodd"/></g></svg>